<mxfile host="65bd71144e">
    <diagram id="2ypNnoWRyy4Suh39m03Z" name="第 1 页">
        <mxGraphModel dx="699" dy="664" grid="1" gridSize="10" guides="1" tooltips="1" connect="1" arrows="1" fold="1" page="1" pageScale="1" pageWidth="827" pageHeight="1169" math="0" shadow="0">
            <root>
                <mxCell id="0"/>
                <mxCell id="1" parent="0"/>
                <mxCell id="8" value="" style="group" parent="1" vertex="1" connectable="0">
                    <mxGeometry x="383" y="359" width="61" height="80" as="geometry"/>
                </mxCell>
                <mxCell id="6" value="" style="shape=image;html=1;verticalLabelPosition=bottom;verticalAlign=top;imageAspect=1;aspect=fixed;image=data:image/png,iVBORw0KGgoAAAANSUhEUgAAAgAAAAIACAYAAAD0eNT6AAAABHNCSVQICAgIfAhkiAAAAAlwSFlzAAAOxAAADsQBlSsOGwAAABl0RVh0U29mdHdhcmUAd3d3Lmlua3NjYXBlLm9yZ5vuPBoAACAASURBVHic7N15fFx1vf/x9+dMZknSvU3SdAEKhW7siwJqoS3gT8AFlbK0ZYeiXpVNRa9Xqyi4AsJ16Qp0AS1XEBEvCE0BQQqyCi1toaXQJU3TNW2SmcnM+fz+KFwRS8nMnJnPWd7Px4PHvQ+bM+fVJM18cpbvAYiIiIiIiIiIiIiIiIiIiIiIiIiIiIiIiIiIiIiIiIiIiIiIiIiIiIiIiIiIiIiIiIiIiIiIiIiIiIiIiIiIiIiIiIiIiIiIiIiIiIiIiIiIiIiIiIiIiIiIiIiIiIiIiIiIiIiIiIiIiIiIiIiIiIiIiIiIiIiIiIiIiIiIiIiIiIiIiIiIiIiIiIiIiIiIiIiIiIiIiIiIiIiIiIiIiIiIiIiIiIiIiIiIiIiIiKjSxDqAiqTqTG7CsQA+5giOdAWDoKiBoFoVPXd/DNIAOkXQDkErXCwT4Mn0Fiy+e6LsMu2vkOQLU6+RPK627iCKunSHHomxM5qtO7pjsSLV2FJ3jSo+DZE6AXIKeQOivx7VsOke6z6vcAAIiCkPaT0SuEwVpwM4GIraEr96WSjWQLDIFcy4c5y86E2pv6T+ftkcFVxo3UEUdYkqHbHz8JkrrTs+yNKW+msclR8CmtjTnyuwMZ7UUw/s2/pCpdu8VmUdQO/vsse1sTOP61TxWQX6Qt/1h6WPbgkIDgJwkKP4wuQmzUDxBIDvzJ8gfyv51YmIAmb5xrrZqrgI//LD9l8JMDCfkb8v31B3+shBrQ9WMM9zHAB8aNJivVwUX2/PYVgFD9EkIZgAYMLkJt3uAL9L9cJVM46WjsolEBHZWN5af7nmcFF3frlSIAZx7nt2w6DBRw/asLn8deXhWAfQP53XpF+c3KQbRfFroKJv/u/VxwWmdrRhx+TFes+Zf9N+dilEROXn5vGzgo6siiZqna4FZQuqAA4APjD5EZ06uUl3ucAvATRY97xLFRRnJDvROnmxzps2TXnEiIhCZ3lz3ecFqC10O4WMK0dPpXAAMDTlMR02qUlfhIPfoIhvvooROFBMXjUWO85r0ousc4iIvOQCZxaznQDx11sHHOV1T6VwADAyuUl/5eaxSoDDrFu6S4EaF5g9uUlfuGCx9rHuISLyggM0FrttpktHedlSSRwAKuyCxdpnUpO+COALEtzbMA/vcrHhnEf1ZOsQIqJSCdBW7LZuLNbiZUslcQCooPMf19Nyio1B+q3//YigOqZ46NzFerN1CxFRKXLQvxe5qTqb657yNKaCOABUyOTFekkuh/sBJK1bPKMQR/HVyYv0UesUIqJi1aR7/ALQ97/5/32o4s0xY5YGdlVVDgAVMGWRXgcXMwN8yH/vBCdMflRf4l0CRBREw4at2Q4HfypsK4Wj+oXyFFUGB4AyO69Jf6OCb4f0rf+fXBz62li8dubCPS+fSUTkZyPrWj8vkE3d/XgRmR/0lQA5AJTRlEV6nQtMte6oFAH2S9YhlM8UIKJwE0E22Vk9QgWvf9DHqquzRjZsmlKJrnLiAFAmUxbppa7g29YdFacYxWsCiCiIhg1bs310w6YDVfU/FLL2PdcFdEH1+XjMPXr0oNZLzSI9xHO2ZTBlkX7SFUwP+1H/9yU4YdIinbtggpxnnUJEVKjRja2/xO6VWfHshkED0Lih42hB6J6LwiMAHrtgsfZRB78L7QV/3SWYMqlJz7XOICIqxdGDNmwO45s/wAHAczngGSiqrTusye7/bj/vfh1s3UJERP+OA4CHJjfpr6A40LrDR+JuDf5mHUFERP+OA4BHzv2LHigRuuK/2wT7TFmk11lnEBHRv+JFgB6JVeFPyoFqj9TBtVMe0lvnfbz799j63cHVg3Ft46kY33MU+lX590GOQdSWT2NJ+yr8dOOD+OvOldY5RKHFNywPnLNIL1TgIOsO31JUaQK/t87wyqm9D8UTI7+Jz/c9mm/+ZdArlsIpvcbgoYOuwuV1J1rnEIUWBwAPxAS3Wjf4nSo+OulRPca6o1R1VT1x+7CLkXLi1imh50Dw86Fn4bCaodYpRKHEAaBEk5r0mwD4a+AHEADiYoZ1R6nOG3A8esVS1hmRERMHX6gbZ51BFEocAEokwNetGwLk8HMX6+HWEaU4tJq/jVYajwAQlQcHgBJMWqyXA+hj3REkDvBr64ZS5DVvnRA5OXWtE4hCiQNAKRTfsE4IGlV8+MyF2sO6o1hL2ldbJ0TOkvZV1glEocQBoEjnLNEGEexr3RE0Akiqf3AHpwVblmB9dpt1RmS0uxnc2rLIOoMolDgAFKmqA9dDI77ef5FcwQXWDcVqdzP43KpfoqWrzTol9NrdDCavnom3slusU4hCiQsBFUmBM6wbgkqAIWc/pEN/+3FZa91SjBc71uKIZdPwpfrxGNdzJBriveBwlvbM5txOLGlfjVtbFvHNn6iMOAAUYcpDWq9AX+uOIIsn8EUA37TuKNbWXDuu23A/rsP91ilEREXhry3FSOAy64QQ+IR1ABFRlHEAKIIqTrduCDpVjLRuICKKMg4AxTnYOiAEkmc9pPw8EhEZ4QBQoGnTtEq59K8nEnGcat1ARBRVHAAK9PrH8CHe++cNAY6ybiAiiioOAAVSwQnWDWGhghHWDUREUcUBoECiOMK6ISxUMcS6gYgoqjgAFMpBo3VCiNRYBxARRVWgFwJ6uaX+0ATwUVe0j6Oy7KD6TX8SQa6c+xSgVsu5gyiRYH//pZw4jqjZBwPjveFwVWgqE4ViU9dOvNDxFtrdjHUOhUggfwC/urHum4BcC0UvFwBU4AJY3lLvLm3Wv1XF3bNHDNiyvhz7Vhe1/FnvEUXMOqEYAsEVDSfj2sZT0TtWbZ1DEdHuZnBTy8O4ofkB5PmIZPJAoE4BqKLq1ea65wG5HkCvPXyI44h81M3F3ljZPPC0cjSIgD/xvaLB+v57xw1DPocbhnyOb/5UUbVOEt9uPB2/2XeKdQqFRKB+AC9vafgrRLpzEV4877j3vdxSf6jXDRqwz5mvBfBIyhE1++CrDSdZZ1CETel/PMb15EKaVLrAvJmt2NB/CqDHdnsDRaxK8UevO0SR9vo1Iyxwl1NM7HcMJIiTC4XK2f0+ZJ1AIRCYAcCNxa4vYrN9l21oHOtlh8bQ7uXrRVzeOqBQ+yT6WycQYd8kvw+pdIEYAFSREMXgojaW3Je8jUGHp68XbWW9Y6MctuR2WScQYTO/D8kDgRgAlrXWjdYizxgLMNzTGMUWT18vygSBu6fpzzv+YZ1AhAe28/uQSheIAaAq7caL3VYcx9tbzRSvePp6ESaKFuuGQj20YykebltqnUER9kz7aty97e/WGRQCgRgAdg7dUvRPXBX3LS9bBHjSy9eLuNetAwqlUJy7egbu3fa8dQpF0MNtS3HG679EjusAkAcCsRDQ0YKOZc2yWUQHFLqtozLHy5b0FixOFlxBe5IDXrJuKMbOfBrnrJ6OI2r2wfheo9A3xqdDU3ntyHfg8Z0r8XT7ausUCpFADAAAIDH3Jrjyw8I20m0jGlr/4GXH3RNl1+QmzQJIePm6URQTPG7dUIoXOt7CCx2eHmAiIqqYQJwCAIBR9a3Xq2JNAZuo5HFuWWIK66A9EMCdfyL+Yt1BRBRVgRkAAKBnLnGUojsXjqmqK1eNHNT6YFlCBIvK8rrR8hZEeCKTiMhIoAaAoUPXbR3VsGmIqv4Oin9783h7Wbm3HDc+dvSglpvL1eEKZpTrtaNCgcesG4iIoiww1wC8Y/fjflvPVsV5KzbXX4S8HqNw+qro60knPuuAuvUry91w5zh5cXKTZgAky72vsHIEs6wbiIiiLHADwDtEkAU2/QbAb0wCFE9CMN5k30En2Dl3nDxhnUFEFGWBOgXgM/9lHRBYLh6wTiAiijoOAEWaP0H+BmC7dUcQuXl8x7qBiCjqOACUwAF+Z90QNAqsu/MUec26g4go6gJ7DYAfpHrhqvY2XCz8PHab4+Bb1g1eEAhO7jUaJ/Yaid6xauscCrld+Qye2LUSD2z/B9x37nciKhHfuEow42jpmNSkvwdwlnVLQLTOO1HmWUeUakBVT/zugKn4SI8DrVMoQr7acBKe73gTE1f9Guuy26xzKAR4CqBE/dK4DEDeuiMIHGCadUOpHAh+P/yLfPMnE0fW7Iv7hn8FSeHvblQ6DgAluvVUaYPgLusOvxNg49zx8ivrjlJ9uu8R+HDt/tYZFGFjqgdhUv/jrDMoBDgAeGD4Y7gQil3WHb6lQD4WjtMkJ/cabZ1AhFN6j7FOoBDgAOCBadMkp4Kp1h1+pQ4eufMECfST/97Rixf8kQ/04fcheYADgEcWjJc7Abxo3eE3AmT6deJz1h1eWZ1ptU4gwuvpTdYJFAIcADzUN40TBOiw7vAVB1NuPVXarDO8cteWp5FXPsSQbM3b8pR1AoUABwAP3XqqtLnApyC8Ufdtt807Ue62jvDSq+lmXNd8v3UGRdgtLY/g6fbV1hkUAhwAPLZgvCxygVusO3xg1fzxcpF1RDn8qPnPuHjNbVib3WqdQhHS0tWGr751F76x7n+sUygkeDNpGdw5Tq6YvEhHQ3CydYuR7VWCo60jymnBliW4c8vTGJ6qR08nZZ1DIdfhZrEyvZGrABZAFVUrWuquVZGzoNIAVQfQLVB5wN1W950xY5ZG/s4tsQ4Is8lN+hyAI607KiydVIycPUHetA4BgNTfL5ujggutO4iiLlGlI3YePnNlJfb1ysYB51SpM1sFe7xdQqE5Ab4zamDrDZXo8SueAiij4Y/jwwqsse6ooC7HxYf98uZPRNGzYmPDlTE4d77fmz8ACKRKIdcv21A3s5JtfsMBoIymTZNcdjNGKLDMuqUC0jHguLknyT+sQ4goml5vHXCUC/fn3flYASAOLlm6of/kMmf5FgeAMrt7omQXjJcxEPyvdUsZbc914aA7xstz1iFEFF25vMwDpIBT2wIn5kT2om0OABUyf5ycqorAPwlvD1b1TWPf335c1lqHEFF0vfba8F4KGVnwhip9V2wY9NEyJPkeB4AKWjBBzos5OBdAl3WLJwT3zh8vw8O00A8RBVO2dtunUOSF7TnJT/Q4JxA4AFTYHSfKXU47hkHxlnVLsQTIQHDG/HHyWesWIiIAiDnOfsVu6wiGeJgSGBwADMz9pKyfP0H2VQffV0XOuqfbFIDisT5p1M8fJ3+wziEieofCaSl6Y9FIPuSDA4ChBSfKd7PVaIDiSb8v7yHARsfBx+ZPkBN5yJ+I/CYe73qw2HWSqkQf8bYmGDgAGLv7eNk6f4J8NNeFQwAs8eEg0CYurpk3XhrnjpMnrGOIiPZkeP+ta+FowUcBFJI9sL41VM8s6S4OAD7xu4/LK/PHy3FwMQaCJQKYPnJOgXUKTJo/XnrPO0m6dV8tEZGlvOqVBW8kuKkMKYHAAcBnFpwky+aPk+PSm1EtwDcUWF2powKi6IDgXnUxZsF4GbpgvNxZoV0TEZXs4IGb74Jqt3+bV+iLoxtari1nk5/xYUA+dfdEyQL4CYCfnP2QDo0n8EUAn4BipAJJT3aicCFYCwePOYqZc8fzED8RBduoxtaJr7bUT4fiUrzvbYEKwHlkVMOmj1eyzW/4MKAAOushPTgRx6kCHKWCER1rlx0qTlxiqVo4yVo4yWpIrAr5dDvy6XZothP5zl2o2Wf0KsRiKwV4yXGx+I4J8hfrv0u58WFARP5QyYcBAcBrzQNH55D/tYpztECrsfv9LgPVpfGq2DXD6zYurlSLX3EACIGjjh27A5BeH/RxMbdqxDPPLKrYP0AiIvIvXgNAREQUQRwAiIiIIogDABERUQRxACAiIoogDgBEREQRxAGAiIgogjgAEBERRRAHACIiogjiAEBERBRBHACIiIgiiAMAERFRBHEAICIiiiAOAERERBHEAYCIiCiCOAAQERFFEAcAIiKiCOIAQEREFEEcAIiIiCKIAwAREVEEcQAgIiKKIA4AREREEcQBgIiIKII4ABAREUUQBwAiIqII4gBAREQUQRwAiIiIIogDABERUQRxACAiIoqgKusAKtFcre+49ytVbiyJfLwWbrwGbjwFdaoQ6+qEk90FJ9eJWLYdOw4Yuy+eWbTSOrmS9EV8FnFcbN1BRGWmeFkOxrXWGUEi1gFUgFm6bwK4VBSnqmBfAXoDiBX0GgJVF+3ioFkUfxXBbZ0XyxPlCbanL2MOBBdadxBR2W2Ug9FoHREkPALgc8nZeooovq2CI6GoBQBICZObQkTQA4oDFThQFRclZ2kOitcRw4zMW7gV0yTn2V+AiIh8iUcA/OiXOjSVxE9c4DQBelZ47zkBntYYvpe5UB6u8L49xyMARJHBIwAF4hEAH+k5Qw/qEsxQB2NVIUbTWZUCH0Eef0nO1hY3h290TZU7bFKIiKhceBeAH0zXA5Iz9fmsgxUqOAHqkyMzigYnhtuTs3Vj4jY90zqHiIi8wwHAkqqTmqPTkzGshOAI65z3pWiQPBYmZ+syLNTB1jlERFQ6DgBGkrfpJxNzsE1dXIagfB0Uo5JteCs+S2+0TiEiotIE440nZFJzdDpy+KMoelm3FMFxgCsTs3QV5mq9dQwRERWHA0AlLdR+yVm6XF1c5pOz/EUTYP9kFm8lZulnrFuIiKhwHAAqpGaWHpFsw3oAI6xbPJQUwT2JWfoN6xAiIioMB4AKSM3RE/LA0wBS1i2e23274o/iM/UW6xQiIuo+DgBllrhNz1UXTQDi1i3l5Ai+nJqlC607iIioezgAlFHyNj1Z8piHiHyeFTgzNVO5aBARUQBE4o3JQs3tehTy+DMi9jlWwXmJWfpT6w4iItq7SL05VcytOizfhScR0aWWRXFNzWy93LqDiIjeHwcAr6k6qWo8CUHSOsWMAHnFL2tn6OHWKUREtGccADyWnIN7FXwiFQCny0ETFmrCOoSIiP4dBwAPxafr+VB8yrrDLwTom9yBB6w7iIjo33EA8MpC7eHEMN06w3cEJ/FJgkRE/hPJi9TKIdmGe4AIn/ffGxezoPp7iLjWKZ5xaoG+lwC144GqgQBi1kUhoUB+E9CxBNj2GyDXah1EFFocADxQPVOPdRUnB319/3IRRa/UHMxIA5dYt3giOQLY53+BxDDrkvDqcSrQ/wrgrTOAjseta4hCiacAPKAO7uab/96p4kLM1AbrjpJJCtjnT3zzr4RYP2Cf+4AqXlNLVA4cAEqUnKWnqWKIdUcAOEkHs6wjStbnXCAx3LoiOmJ9gP5fta4gCiUOACVS4L+tGwJDcSoWaj/rjJLUjLUuiB5+zonKggNACVJz9AQB9rPuCBAntQO/to4oifA6z4pzqq0LiEKJA0AJVHGjdUPQKHCGdUNJMq9YF0RP+h/WBUShxAGgWNM0BRdc6rZQgnjNLA3u3QDb7wDcTuuKCNHdtwMSkec4ABQpMRjXQvj5K0YeCO5VXV3rgA0XA5qzLomGTd8BOp6yriAKJb6BFckRXGjdEFQKjMFC7WHdUbQddwFrTgTaHwE0b10TQgp0PgO89Rmg9QfWMUShxYWAijFNUwoMtc4IKgEkuQuXZoCbrFuK1vEksOZkQKoAp6d1Tbi47YBmrSuIQo8DQBFqhmJKXrn0TynExWcR5AHgHZoD8tusK4iICsZTAEXIu5ho3RB0ruAw6wYioijjAFAEBY60bgg6UfTEPOUar0RERjgAFEEEfa0bwqAmi09bNxARRRUHgAL1+I2OBnj+3wsu8CHrBiKiqOIAUCA3hnHWDSEy2jqAiCiqOAAUiL+1ekixr3UCEVFUcQAokAr2sW4ICwV6WTcQEUUV1wEokAh6qFpXhISE4PuPCwFRKCiQ324dQRUW/B/AFaZArXVDaGiAv/9qPgbUTwNqTgAkZl1DVDq3DdhxN7Dpv4Bcs3UNVQBPARRIgBrrhtCQgN5N0ftcYL8moHY83/wpPJxeQN+LgQOeBRLDrGuoAjgAFEoRt04IjSAupxwfAgyatfvQP1EYVQ0CBt9uXUEVwAGgQC6QsW4IDUHwrqbocwHgVFtXEJVXzVggOca6gsqMA0CBBOiwbggNhWudUDD+UKSoSB1iXUBlxgGgQCLYZd0QIjnrgIIpDwBRRLhp6wIqMw4ABVIXO60bwkIVXdYNBet43LqAqPw0B3T+zbqCyowDQIFcByusG8LCcbDFuqFg2+8Esq9ZVxCV19ZfAblN1hVUZhwACiQullg3hIUq3rBuKJimgbc+CWRXW5cQlUfbvUDL160rqAJ4L1OBsiksSvI0sCdcxcvWDUXJrABWHQL0uRjoMQGoagTA9QAowLRz91DbthDY+YB1DVUIB4BCTZFmzNI8+BO/ZFIV4KMpbgew9dbd/xERBRBPARRBBFwns1QCzWbxB+sMIqKo4gBQDMWT1gmBp9iMqcI1FYiIjHAAKIIC86wbAk8DfPifiCgEOAAUIXOJPAAgb90RZAossG4gIooyDgDFe8U6IMC6spfgbusIIqIo4wBQJBf4uXVDgD0BkeA9B4CIKEQ4ABSp6xKZB4CLZRdB8rjOuoGIKOo4AJSmyTogaBTYkZ4qi607iIiijgsBlSCTweXJJN4EINYtARKelXNi/YGajwBVDeC3AAWaZoGuN4GOJ3f//xQJ/KlVotQs/ZsCx1l3BIKiM3MJelTy/L++jDkQXOjpi0oMqP8B0P9KQJKevjSRqa71QPMXgZ1/tC4pxkY5GI3WEUHCUwAlSsRwPgRq3REEroPpobj4r3E6MOBavvlT+MQHA/vcC/T8lHUJVQAHgBK1XSivieJp644ASHf1xDesI0pWczzQ92LrCqIycoDGXwIStw6hMuMA4IF0Hp8EkLPu8DPHwTcwUYJ/crHXmdYFROUXH7J72KVQ4wDghamy2VX8wjrDtwSvdV4kt1hneCI+2LqAqDKqhlgXUJlxAPBI16VyDYBW6w4f0oSD8JxQzLVYFxBVRo4PPQ07DgAeigPjoQj+RW4eUgc/2XmhLLfu8EzbvdYFROWX27T7lkAKNQ4AHtp1ibyCGK6x7vALUTyXvUiute7wVHsT0PY/1hVE5bXxKkAz1hVUZhwAPJa5SG4SgKOzoD3dGydaZ5TFuinAthkAD/ZQ2OS3AesvBHbwYZ1RwJUAyyC9DiemhuANBaJ6FU3eEUzARNllHVIWmgY2TAVabwBqxwFV9dZFRKXRrt0rAe76C+DutK6hCuEAUA7TJJdeqKMSO7FGFP2tcypJAVdy+FTn5RL+tRG61gDbb7OuICIqCk8BlMtE2ZXticMAdFinVFJVHl/MXC5/tu4gIqK94wBQThNlfaYTB6ugzTql7AQaA77UMVWmW6cQEdEH4wBQbl+WN7I5HIBwrxHgqouJHZfIr6xDiIioezgAVMJU2ZzJYz8Ar1unlEHacXB89lLhvXFERAHCAaBSpkpH5hI5UBzMsE7xigKrMwns23lRBC74IyIKGQ4AFZa+SKYCOB1A2rqlaAqIYm72EjkA58km6xwiIiocBwADmUvkgUweQwVYYt1ShFZxMT59qZxvHUJERMXjOgBWpsrmNHBc8jY9WfO4S+D79QLy4mD220cwiIgo4AI9AOjM+obMTudqFTnegQx0gaTAdQHZqi5erRKdHr9q42PWnXuTuVAeBjAgMVtvEMWXAdRaN72HC8H/ZuK4iIf7iYjCQ6wDipG5eeD3XFe+IIK6D/xgkTTy+tdkr/wUuXST75/lmpil3wZwjQC9jVNyAtyb7oXLMVG2GrcUTV/GHAgutO4gorLbKAej0ToiSAI1AORuapySF7lFVfsUsbmrogtT2zdOkWnIeR7nseQsPU0UX1PBR1DBIzUCrHOB27N53ICpEvhVDDkAEEUGB4ACBWYA6Lypca4AU0p9HQU2p9zMkXL11rVedJXdNK1KDsZXxcFZqhgDoMbjPeQArHEFD3Ul8ENMkWaPX98UBwCiyOAAUCDfDwCqcDI3Nz4H4HDvXlUyeYl9rPaKtX/37jUro9dtemBacbG4+LAIhqmizslna9xYYq/biZuDOrEugWwB8BYES6FYkL5EFlWm3AYHAKLI4ABQIN8PAOmbGh8CcEoZXrozmXP3k6+1BP7CtqOOHbvDrarp5Saq4VZVI5/YfR2hk8vAyXXCyXYilt2JKk0c9PTTD79mnFtR+jxGI4mx1h1EVGZ5vCWHoqIPIlvVOvigbL5rGoDjBOilQBbQ1Xnofx88cPNdlWwphq/vAui8cfB1gFuON38AqE5XxZ4FsE+ZXr+inFwnnFznXj9G1fX9wOc1ORLLACyz7iCicFm2seHebL7r03j7F2n9vz+RgTHI8cs31v8sHouPO6Bu/Uqrxg/i24WA9MYh/UTy3yznPgQ6dPeQQURE1D3LmuuXCvQz2MtRdAUGZd2uV17bVndEBdMK4tsBIKP53wISK/d+RNyv6zSkyr0fIiIKvmXNdb8VwehufbAinsvI46r+PNruywFAbxneC46eVKHdJbp6N9xQoX0REVFArdjcf7AIJha4WY8Vm+pvLUtQiXw5laS7dl0pjlTsfHUesc8BuLJS+6PdljcPvFCR/w9x5AB1kVRH0zE4y13oT0c1bLrHuo+I6N20K/afkMIvnlcXEwF8oQxJJfHlEQDHkbMquT+BDtFbhveq5D6j7PltffZ9dWP9OhV3DkSOVEVvCFKi0sdVPRaK37/aXLdi7doh/axbiYjeoQ4+WtSGAl/+LPPlAKDAARXepaTzOz9f4X1G0ktreg+rziRWABi81w8UOWhXPPsmhwAi8pG+xW64rHWA79Yo8N0AoNNQBWDvq9qUgzjHVHyfERRPJZ8CkOzmh/fYVZX5Wzl7iIi6zdVdRW2nwKgBm1s9rimZ7wYA9B7wwQ/4KQNHMcBiv1GyfGPdVwRoKGgjkRErWuo/U6YkIqJCvFzMRirSIeK/Z9D4bwBwXZMLE9WnF0SGiSq+VMx2rsrXvW4hIipUvEp//O4lf7pN3Uc9j/GA/waAEn72ZwAAIABJREFUoVtNHtmrgi0W+40WKWrVRRV3pNclRESFGl63+Tkoni9oI0G+SxxfPo/EdwOATERWRLoqvV8XUtgXlQomgnhR26lUe91CRFSMVLp2AoCd3flYBeCqXHbYQH8+c8Z3AwAAqKvrKr3Pmtrc7yu9z6hRFHkOTHTvDzkgIqqQYcPWbE8KDgTw1t4+TqG5mJs/b8zAljkVSiuYLwcAx9FKLwLTIpduMjn1ECUCFDfYuXjd4xQioqLt37CpZdTATfu6ef2KAKsAzb19bYAL0W2q+rv4zt79RwzaMs+6dW98eeFbXHM/zyB+daX2p8BDldpXlKmjc+DKDwvdzlX3lnL0EBGVYszg1lsBvM8yv7676+/f+PIIgFy5uRnAcxXZl2g+VSMVGzaibFR96/UCbC1wszfHDNoyvyxBREQR5ssBAACSVYkztaj7LQrjQm6XqRs2l3s/tFsGcoJCu3stQNqpyn+krEFERBHl2wFAvvzmG1AsKOs+oG2pQc1fLOc+6F8dNrDllS44R3zgkQDFhng8d9CIAVvWVyiNiChSfDsAAED1Vc1TACwt08vnsnkcJxORLdPr0/s4bGDLKyMHbuoP6LdU8LoAaQB5KNICfdURfGlU46bBw/tvXWvdSkQUVr68CPDdkjXNH8p0NK5GoUvI7oUALuCc0/Oa9cu8ek0q3KiBrTcAuMG6g4goinx9BAAAZCo6koOb9xHVJZ68oCLtOnJC8sr1/+PJ6xEREQWQ7wcAYPfqgMmrNh7niP4cxS4ms9vzyby7b/VXNzzhVRsREVEQBWIAeEfiio3XJGO1/aG4D9DuLhesEFmlcZyQurL5KPmaP5dkJCIiqiTfXwPwXvKV19sAfAYAMjc2fFrV+YI6MhrQfrL775MH0AHgLVXcm6qqveXtbYiIiOhtgRsA3i15Vct9AO6z7iAiIgqaQJ0CICIiIm9wACAiIoogDgBEREQRFOhrAOifnGQtnGQKTjwFJ1ULANCuLNxsJ9xMB9x0O0Scsj9bwW+O+PSS0U4yN9a6g8hL6uY3Pf8/J1T6sekUMhwAAuaCv+nIXAYXA/iwKPZ1FXXqdlU7sfjeN3TzgBNbeqBimwjeUgfLoLhr/jh5sCLhRiSZvUahF1p3EHlJBDsBcACgknAA8LkzF2qiegCucYEzAYzMpZF6588UgAggH/TmDwBODADiENQrUA8XRwM4b3KT5hV4UwVNbhbf/+3HhevvExFFAAcAn5qySD+pwNUQfMQt79cpJsD+othf4rhkcpO2iOLO6t749oyjpaOM+yUiIkO8CNBPVJ3Ji/S7k5t0hwr+CMEJqOCQJrv/T4MKruxoQ9vkxXrPZffrgErtn4iIKocDgB+oOpMW688mNWEXBNMA9LJOAhCD4oyOWrRMXqQPnbNEPXsaIxER2eMAYOz8RXrKpCa0iuJqEVRb9+yBA8EpsXZsmNyk061jiIjIG7wGwMg5S7Qh1on784pjxDqmOwQOgMsmN+nn8g7OuetEedg6iYiIiscjAAamLNJPxjrwJhTHWLcUoX8sj79MXqy8BYmIKMA4AFTY5Cad7gr+CCBp3VI0AaA4Y1KTruK1AUREwcQBoELOXKg9JjfpagCXBeKQfzcIsH9VB96cvEiPt24hIqLCcACogCkPaX2qDqsBDLNu8ZruPpLx1ymP6pnWLURE1H0cAMrsrD/rARrH66qos24pG4HjuvjdlEf0S9YpRETUPRwAyui8+3VwVRIvA+hp3VJuAogK/nvSYr3cuoWIiD4YB4AyuWCx9nFrsdSn9/aXx+6LA391/uN6mnUKERHtHdcBKIMzF2oip3gFQG/rlkoTQPI53Dd5kY6dP0H+Zt1DRNGgM+sbsu2xkwGMkbz0zIv2doB+rqNtUGmLie7sQuy1WB6LU1evX2nd6wccAMogWYfHoBhs3WEoBsFfvvxnHXTrqdJmHUNE4aILkehaN3CSOnKmqzhGoH0zuyT2f3/u6NsHJHefmwQAVwUxuIADdN7UqA50pyvyiqrcV12DOTJ1w2ajv44ZDgAem/KIXq2KY607fKB2WwqPATjCOoSIgk8VTscvBl0ec/XL6fUYIQKBvvMQs8JurhZAFNJLFMcL9PhMB37cedPAZkfkjsT2fj+UaUt3lePv4De8BsBDZz2kB6vgJ9YdPnL45EX6I+sIIgouvXFIv8zNgxZmbh6Ujqn+EoKRUug7fjcIpFEV16Z7b23rvHngUzt/NnC01/vwGw4AHqqKY/Hba+bTOwRfn/SIhv4fEhF5S28c0i9zY+MDGcm3quqZgMYrsV8BRFSOrXJkafrGxhd3/qLh4Ers1wJPAXhkyiK9SYEB1h0+JM7upY+HW4d4bfT+PfGhQ/qgZy3/GXmpM53HSyvb8OzS7VC1riELHTfWX52R/PUAElYNsvsYw2FxV/6RvrHxD8khzWfLRGStesqBP7k8cNnj2tiRw5etO/xKBQdMWqxXLBgnN1u3eKG2Oobvf2kkTjymv3VKqP1jZRuuvflVtGzJWKdQhehPhh6QSeQfheoQ65Z/EoHgjMz6xm25m3Ri1ZUbH7Au8goPV3ugI4/7AMQ+8AMjTBQ3nLlQzaZ5r4gAP7lqNN/8K+DQg3rhl/95CFJJ/piKguwvBp6fqcot99eb/7+o6YL8qfOmxrnWIV7hv6wSTXpER2swH+tbaanUAPzMOqJUHzmiH449tK91RmQMG1yDz53UaJ1BZZa5edBC15XbIf4+Ki27/5uSvrHxVZ2GlHVPqTgAlEgczA7L0/0q4LJp09TX/8A/yMeO5G/+lcbPebhlbm788+6L/AJEMDLTu3GNTh8U6Ou+OACU4OyHdCgEH7buCAoFkivG4vvWHaXo0zPQ80sg9elVkYu/qcJU4WRualymik9YtxSpIdvhrtJf9w/som8cAEpQlcB0qPf3o4aZowj0EwM3bOIFaZW2flPaOoHKIP2LxqcVGGXdUQqF9Mqmk6/otP36WLcUgwNAKRTjrBOCRgS9zl+kp1h3FOvBJzfx1rQKe/CJTdYJ5LH0zxsfFMXR1h1eUGifdJ/0q7rQ7pbFYnEAKNKkR/R8IPgXgVjIA9+ybijWijW7MP9P66wzIuPRZ7fgkSWt1hnkoc6fD74eDj5u3eElURmY3tC42LqjUBwAiiRVuMq6IahU8BGoBvZ77xcLVuPGuauwsz1nnRJa2S4Xc/+4DtfetIxHXEKk46dDPiyOe611RzmI4vjMzY2B+uWG56+LoepMbkIXl/0tngKTFoyXO8u9nyMnPj4H0AvL8dqJuINRw3pgQN8ERPhPyStbd2SxfM0udHTmrVN8SxQ7n7v7hF7WHYXQaUhl+zS2qqKHdUu5COB2IXdUjytbX7Ru6Q5e0lyEKU04TfnmXxJHcQ6Asg8A5ZTtcvHSSj7tmKg7Mr0af4sQv/kDgAJODFX3AdjXuqU7+CZWBBFMtm4IPIe3TxJFxa6f1h8KB5+y7qgEAfbpvLHx29Yd3cEBoAgu8BHrhqBTYMBlz2qNdQcRlV8sHrsvSrdMi+C/grBSIAeA4gy0Dgg8hbS34TPWGURUXulfNP4/Uexn3VFhiXSfxpusIz4IB4ACXfa4NoIP/vGEKI6zbiCiMlP5b+sEC6K4UKf5+zo7DgAF6nRxknVDiBxiHUBE5dPx0yEfhuoB1h1GktneA39gHbE3HAAKpC5/a/XQMOsAIiofJ577oXWDJYVcYN2wNxwACqSCA60bQkPQzzqBiMpI5WPWCcYadv6i4WDriPfDAaBAjiJQi2/4HB/zRhRS2RsHXggEb318r8Vd53vWDe/H1xco+JEL1EbmXpbyC+z3X99ecZz9icE45uA+6N87DonOHU6Bl8srNm5JY/EzW/CHpmZ05bjWcDnkRc7nvwoAgG+PggT2B7AVAXjvulcCupriyGE9cOs3D0G/3jyAEVT7DqrGhw/pi0+PG4gvXf8yduzssk4KHUflcBUOVwrU6bQxPWTa0l3WLe8VyB/AllSRtG4IjQAuDFKTiuGmr4/hm39IjNq/B773xRHWGaGj0wcNUNHe1h1+IAAyvbb7cvVYDgAFEgF/VfCKIHC/Hpw2tgH1/TgDhsnHjuyH4fvUWmeESsfOPBf5+hfu/7Mu2BMOAIUSdFgnhIYbvAHgkAN7WidQGRx6EK/t9ZJT5Rxr3eAnAn/ePcYBoECiaLduCA1BzjqhULFY4M5aUDfEHH5dvaVjrAt8RWSQdcKecAAokAp8dyFHUIkGbwBYuYbzXxitWMN/1p5SZ4h1gp8oXF8eOuQAUCjFm9YJYaGCHdYNhbr/sY1o78xbZ5CHlr6+Ey+/1madESoOtNq6wVdEfPle68soP3OAZ6wbQiRww9TWHV341i2vItvlWqeQB1q2ZPCtW5ZDA3c1it9p5BcA+hcK8eODgTgAFMhJocm6ISwEWGbdUIwnnt+Kyd98AQ/9rRXbef944LgKNLemceef12PStc9jXUundVLoqDi8T/a9eg+os054L99NJH53+/GyfHKTKhC8e9j9Rt3gHk1ZtbYd3/rFq9YZRERF4xGAIqhim3VDGNQk8EfrBiLynqjLQ2PvtWNzq3XCe3EAKIIAz1k3hEDbjLHSbB1BRN5zRbLWDb4iUJnmv7ueOAAUw8FC64TAE7xknUBEZaLCBdPeTdWXVw1zACjCOmB+EJex9RMF7rFuIKIyEXe9dYKfCJyd1g17wgGgCI+OkzRcrLXuCCoB3GwrZll3EFG5yFLrAj9R0Q3WDXvCAaB4c6wDgspVLL17onDpNaKQcnPuEusGX3HxmnXCnnAAKNI6Bz+GwpfndfwuJrjZuoGIyqemZ+wP1g3+4jxoXbAnHACK9Og4SYvgBeuOAMrOHS88ekIUYjJ1w2YR2W7d4ROarF0/1zpiT7gQUAlywNUx4FHrjiBR4F7rBi/16RlHbU3MOoMKtG1HFzrSfKZDOam6LwJyonWHD2yWqf58jDwHgBLcNV4em9ykbwAYZt0SCAo3W40vWmd4YexR/fGFs/bDQfvWWqdQEVxX8fTL23HTvNVYtZZPeCwHx8HtrosTrTusCfCYdcP74SmAEsWq8GXrhsBw8MDdx8tW64xSnXnKINz4tTF88w8wxxEcd1hf3PHDw3HoQb2sc0Ip8dWNdwCI/IJAWcf9nnXD++EAUKI7xsoDAt4S+EEEcPPVuNS6o1RDGqpxzQUHQPgkiFCoTsbw/S+NQFWMX9Ayedw6wJJCW3p+teUV6473wwHAA13AmVwYaO8EmHnXsdJi3VGq08fW880iZIYOrMZRo/tYZ4RSXqq+Zd1gyRG5zbphbzgAeOC34+VpzeMv1h1+pYq2uePCce5/v8E11glUBsMGV1snhFLtFWv/Dsjr1h1GMontzf9lHbE3HAA8kt2KzwPIWHf4kRPDJRAJxZoJvHI8nDrSofj29CV15XLrBguOK7P8+ACgd+MA4JG7J8oucYJ/jttziofnnSh3W2d45ZlXeGtz2LgKPLuUX9dyqb56/SIBVlt3VFgmPnTDVdYRH4QDgIfmnSjzXAVXwPqnbZktON06wksPP9WKlW/ytrEwuXdRMza0pq0zQi3ruJ8GNDLXSbma/0+Z6P87IDgAeOzO8fgcAF8++KGSBHAdFyfePTFczwXP5xVX/PgVDgEh8fBTrfjZ7ausM0Jv95XwEqpFwN6PAmtqrtr0c+uO7uBCQF4TcZOL9PiMYDmAlHWOBQUgisvnniT/sG4ph5YtGUz+5vM4+dg6HHNwH/TgSoCBs3lbFk3PbMFzy3jov1KSg5vPya4f2KqQMC+84OYc95PWEd3FAaAMZk+QN89+WI+PxfCMRPBzLIofz5sgM607yimfVzz45CY8+OQm6xSiQJCJyLbfHD+pSnNLNKRHn0XkW36+7/+9QvlF8IPfniwvAPh/gsg9MfCO+RPkWusIIvKf2ivW/h2iP7DuKAcF/pq8YsOPrTsKwQGgjBaMl0UuMAURGQIcYOH88XKBdQcR+Vfyio3fFQnPnUG76VupHc3jrSsKxQGgzBaMlzvdGMYB6LJuKScBbp07Xs6y7iAi/0tesWGiKp6x7vCCiGxLxnoc4vd7/veEA0AF3HmCPO4KPgSg07rFcwIVF9fMGy9fsU4houBIXdl8HATLrDtKIdC2RDJziHzl9TbrlmJwAKiQO8fJi5kUhijwknWLVwTIOIoz5p0kgbjlhYj8QwRu6ormMSL4X+uWYii0JaFVw+QLW9ZbtxSLA0AF3X28bF0wXg4HMCPoDw9SYHV1O4bMHS/3WbcQUXAlr2g+VV3cZd1RoKWpwRv3kavWBfrx5hwADMwfL1NdxekAdli3FCEPFz9dMF4OmPFJ2WwdQ0TBV31187lVwHki4vdrpVQhv05d2XxwEFb6+yAcAIzcOV7+PH+89BHFTUG5VVCBl5x27Dv/JPm6dQsRhUvVlc3zErH4CEDfsm7ZEwXa4eDU6is3hOLJpgAHAHPzJshVCcX+EPzdx6cFNkJwxoLxcvjcT0pgz3cRkb/Jl998I3Xlxn2h7lXwydNVFVAo7k0Nbu6X+mrzg9Y9XuIA4AOzJ8ib88fJh9wujIDiMcA3g0BL3sWU+eOlcf444UOOiKgiUle13JSM1dYD+kcYHSF9+4fwc+I6I1NXNX82DIf83ytyy9T62Z2nyGsATjzvfh3s9sCP1MWnRFDRdbNVkRMHTzl5fHfuSbK4kvsmInrH27fWfVqn7dcn3TP9G3HwWUDiZd8v4LqCJZJ3LkxdvX5lufdniQOAD719mH0KAJzTpCfEFN+Bg2Og6FmmXWYBrHSAX88dj99AJBDXJBBR+Mm0NdsBnK0Kp+MXgy+Nwf0KFKMAiJf7UZX1TkxuT6TWXy9T0eHla/sVBwCfu2u8PAZgAgBc9rg2duQxVRSnqWAYFL1R4NdQARXBLrhohuBRdTBrwYny93K0ExF5RQQusH46gOm6EInshsaJED3bzcuHHEFfLeBnoQAuVHa6qi+LuPck26pve3vQiBRPJyg/WrZ2yIFa1fVlRzAGgCNwV1fF9FfD6zY/Z93mhcvu1wHLFnz5TacqURNL9YSTrIYkqiGxKmi2E/mOnchnO+Gm21F92EdPevg/z1lk3VxJR37+sc+qg4utO4i8FHPxxrP/c8J/WHf4if60oT4rsQmuI6NjjvbJu9rHAfq5jrZBZYcD3e5K1apUVprk62tXWff6QWgHgJfW9B4WTybvF2DMHv+WgnWq8TNHD1y/pOJxHjvq2LE70I1nbMfcqhHPPLMo1Oe0iIioe0J5F8CKDYM+mkimlou8z5s/ACiGCLqeXNE88PyKxhEREflA6AaAZzcMGqBO7mGIJrrx4Y4r7pzXttUdUfYwIiIiHwndANDDyf9WgVQBmzhdWVlYtiAiIiIfCtUAoApHRU8sdDtxMfylNb2HlSGJiIjIl0I1ACxtaTgNiljBGwqQSKUuLUMSERGRL4VqAIjBPbjojdUd7mEKERGRr4VqAHDz2FXstgrp9LKFiIjIz0I1ACRq8ESx2zqioVgYiIiIqDtCNQAc2Lf1BQXaC91OBG5zQ+uMcjQRERH5UagGAAAQyC2FbqOiD4wTpMvRQ0RE5EehGwBGDWz5FlSXd/fjBdjhttafW84mIiIivwndAAAA7QNbjxLoqx/8kdJaFc8dMmbM0qIvHiQiIgqiUA4ARws6Rg5sHa2Kbwiw9b1/rkC7q3LryIaWgcP7b11r0UhERGSpoGfJB83oxk0/AfCTZa0DGjUb+1DMceNdXakXDtmHj4IkIqJoC/UA8I7RdZubAdxn3UFEROQXoTwFQERERHvHAYCIiCiCOAAQERFFEAcAIiKiCOIAQEREFEEcAIiIiCKIAwAREVEEcQAgIiKKIA4AREREEcQBgIiIKII4ABAREUUQBwAiIqII4gBAREQUQWIdQIWrnaGHdzn4hAiOhGJkdevyMerExY1XI5/oAY2noE4VnK52ONkOOF2diHW1o7Nu5GpF7DUF/iGCxzIX438h4lr/fcpp+ccnzhEXF1p3EEVdlSsjDlj0u5XWHfRPkXgccOBN1wPiMXzJAU6B4MCcIiEAoLv/uLNu5B43yyd6Ip/o+e7/aX8A+wvwcQBfS8yG68zS9RA8AcXs9CWyqKx/DyIi8g0OAH61UHsk2vANB7hAgSH/97+rd7sQwFFgKBTnADgnOVMzcNAU78I1uy6XZd7tiYiI/IYDgM/U3qGH5rsw023DMQKIh+/3H0yQhOITXVX4RGqmrs8Lvtl1icyrZAIREVUGLwL0ieqZemxylr6Yy+IlBT4kxtdnqGCwA8xNzNYdiVl6nWULERF5jwOAtblan5qlT7mCpwAc5rfLMkXRS4BvJ2fpptR0HWfdQ0RE3uAAYCgxS69LZrBegWOtW7qhTmNoSs3UR3Gb9rGOISKi0nAAsPBLHZqapWsF+DYkWNdhqOCEpIuWxEz9vHULEREVjwNAhSVu03OTSaz6lyv7g0aREMHdyZl6j3UKEREVhwNABaVm6V2SxwIAcesWTwjOSM3WN3hKgIgoeDgAVEhytv5ZgbOtO7ymiv0SebyBX+pQ6xYiIuo+DgDltlATydm6FIpPWKeUiwB9kkm8VnO7HmXdQkRE3cMBoJymaVVqJ1ZAMdo6pQKS+Tyeqp2hh1uHEBHRB+MAUEbJwXhGFftZd1SMIp5z8BRu1WHWKUREtHeBugUtSJKztAnAEdYdBlKJajyfvU2H4ULZbh1DRNQdq1oHH+Rq9jBXpQux/N9HDNiy3rqp3DgAlEF8tv43FJFdNU+APok8XsgCPBJARL6liqoVm+pvdVXOy+a7av5vBfZcDMta6rZB8OPR9a0/tq0sH54C8Fhqlk5wFF+07rAmwH6pmXqHdQcR0Z48v63Pvss31m9UxeUCrXnvn4tKX3HlR8s31i17VvFvfx4GHAC8dIv2UsX9MH6Qj1+o4LzETD3LuoOI6N2eVdRUZ+MvQND/gz5WIaNqNtW/VImuSuMA4KFkDR6HoNq6w09EcAdu0V7WHURE76htqbsXKn27+/GiGL58Y8MPytlkgdcAeCQxUycDOMy6w4eSyRrckwFOsg7xmiTiSB24P2L9+kCEB328ktvehszrb8Dt6LROoRB6VlGDFpxc6HYu9AoA3y5DkhkOAF6YplUAfm2d4VuKCak5ekL6InnMOsUTIuj7+dPR/9zPwqkN5alBc9rVhe33PYTNc+6C5nLWORQiPVsaprrQgid2AWqXbqo7fEx964vl6LLAUwAeSA3BPBH0sO7wLQFU8TvrDK/UXTYZdZdO5pt/GUk8jr6fPx2N/3UlwKMr5CEVPbLojbvwMQ9TzHEAKNVt2keBidYZvqdoqJmlgb87Ijl8GPp+9jTrjMjocdzR6Dn2OOsMChF1NVnsthIP190AHABKlMpjBvh57JY8MM26oVS9xn2Ev5FWWM/xH7FOoBBxxVlV7LaxDF72ssUa37hKMV1rFDjDOiNA6uKzdIp1RCmqGuqsEyIn3lBvnUAhkklmfgMtatP8QUNaH/Q4xxQHgBKk4rgJvJCyIDHB9dYNpci37bROiJx8W5t1AoXIkX23v6mCgo8CqOpDInDL0WSFA0AJXBdc5KZAqhjSc4YeZN1RrPann7dOiJz2Jc9ZJ1DIxJN6JtD9N3NRdFanayeVMckEB4AiVc/R4wXobd0RRF0Ovm/dUKz2Z15Ax3P/sM6IjOyb67D9gUesMyhkDuzb+oLj5i9A94aAjCvx8cOGrQndw804ABTJdRG6VaEqxQWCexm9KjZcdyN2PfGMdUnodS5biXXfvB6ayVqnUAiNGLRlXrYrfzyAt/b8EQpAXnKq8geMHrh+SSXbKoXnr4t3vHVAUAnQI/UbHZu+XB63bimG29GJDd//OZLDh6H2yEPg9OQSEF5yO9NIL12Ojn+8CmhxV2sRdcdhQ7c8DWDf17bVHdHViS+K4wwHkBO4r2TS2VsO22/HG9aN5cQBoAg1s/SIPFD0vaQEoAqXAAjkAPCOzOtvIPN6qH8+EEXCgX1bXwBwqXVHpfEUQBFcxWXWDYEnGGudQEQUZRwAiqCC8dYNQaeKoVDl9x8RkRH+AC6GYph1Qgg4ydk4xTqCiCiqOAAUaqH2gCBunREGKjjBuoGIKKo4ABQosQMTrBvCQoDDrBuIiKKKA0Dh+GQS7wy3DiAiiioOAAUSwRjrhrBQBZ/yQkRkhANAgQToZ90QFsK1FIiIzHAhoAIpUGPdECLB/f4TQe3Rh6Hm8DFwavktQeXldqbR+fKr2PXUc1wdkTwT3B/ARhSoFeuI8IhZBxQj1rsXBn33alQfPNI6hSKk7+dOR/q11dgw7WfItW6xzqEQ4CmAAjmKlHVDiARvlhLB4O99jW/+ZCJ14P4Y/MNvQuK8E5lKxwGgUNL9Z0jTBwjgkcweH/0QUqMPss6gCEvuNxS9TuZK2lQ6DgAFUkWndUNoBHCYqj2KSxeQvdqjD7dOoBDgAFC4duuA0BDkrRMKxQv+yA+cHvw+pNJxACiQCAcAD+WsAwrV1dxinUCErvUbrRMoBDgAFK7ZOiA0NHjDVNuivwJu4M5cUMjsePgx6wQKAQ4ABXKB56wbQmS9dUChsm+uw+a5d1tnUIRtu+cBpJettM6gEOA6AAWKKR5zg3fzmi8JsNy6oRhb77wHudbNGHD+WaiqH2CdQxGR27odWxf8Htv/9LB1CoUEB4ACdV6CZ5KzrSvCQYFnrRuK1fbw42h75K9IDB4Ip7raOodCzs1kkF27gasAkqc4ABRKxMUsbQdQa50SdHHgwYx1RClUkV3HS0KIKJh4DUARBHjZuiEE0rsukVesI4iIoooDQBFcxf3WDSGwwjqAiCjKOAAUIetihnVD0KmLP1s3EBFFGQeAYkyVzQpstc4IsmwXfm3dQEQUZRwAiuQI7rVuCCoB1uJLsta6g4goyjgAFCkdx7cgQXyenT3XxW3WDUREUccBoFguQU7bAAAE1UlEQVTnySZVrLHOCBoF3Kzix9YdRERRxwGgBFV5vpEVygGewVTpsO4gIoo6LgRUgo6pMj0xS38kQB/rlqCoyuFi6wYvxBvq0Hfip1Bz+BjE+vLLT+Xltu1Exz+WYdvC+5Fdt8E6h0KCA0CpHNwAl0cCukXxwq7LZZl1RqmqDxmFwd//OpxaPpOdKiPWoxa9Bw1Er3EfxYYf3IT2p5+3TqIQ4CmAEmUvkp8osMu6IwhicVxq3VAqp0ctBn3nar75kwlJJtD4ra+iqn9f6xQKAQ4AHtA8/sO6we8EeLzjAgn8o5R7n3ICYr17WmdQhDnVKfQ+/WTrDAoBDgAe6Joqd4BL2+5NLp3H56wjvJA66ADrBCJ+H5InOAB4JJPHaQq41h1+pC6ux1TZbN3hBS78QERhwQHAK1NllQqXt30vEazJXibfte7wSmbFKusEIqRXvG6dQCHAAcBDXRfLf4CnAt6tK90TH7WO8NKOhx9DfkebdQZFmNuZxo4HHrHOoBDgAOCxTAzHQtD5/9u7dxC5yjiMw+9/F2/RVQgiphcrhQgBK0EQK0FEwpaaNbO5INqljrGwEBFEUVFc0UYQwUIRERS1s7BQca1EC6/xkkWT2T2T3fkslDRC4mVnzm7yPDD1/KZ7mXP4vr47toLWcm/m69u+OzbT+OSpfPfw4xmfcpYR09e6Lt8/8kTWfznRdwrnAecAbLaFWsmzbW8uyptpqb5z+lKVF7tBvdJ3xySsfvZFvj54JDvn78yO3TdkdqeDgJisjZXfsvrpck689kZG33zfdw7nCQNgArpD9daOF9tgYz0vXJAToOW9tUHd13fGJK0f/znHn1rqOwPgP/MIYEKGC7XUWh7uu2PqKsvdYt3WdwYAZ2cATNDoQB2tlmf77piWlnzVzeWmvjsAODcDYMLWFutwG18Q/wR8Mvom12e+Rn2HAHBuBsAUjA7U0dnZ7D9fDwqqlg+6Qe3OQ7XedwsA/4wBMCXDhVqq5I4ka323bJpKa8lja4t1a98pAPw7BsAUdYN6u5vNriSf9N2yCYbVcvtoUEf6DgHg3zMApm2hVrpB7R63PLldHwlUy8fdMLvWBvVu3y0A/DcGQE9OL9aDo9Vcl+31b8BwvJF9a4u1Jw+W83ABtjEDoE8P1FfdoHb/9YLg733nnMVGJS91+zP319XHAGxzBsAWMFyopdGgrpxN7k/lx757zmhZT8vr3WyuXhvUvlRty0cWAPydAbCFDAf1dLe/rp2tHGgtX6b6uX6+JSfGyTPdt5nrFuvuLNRKHx0ATI67ALag4f56Psnzebldc2mXY62yN8nVE/3SltXM5P2ZyrHV++qjiX4XAL0zALaye+r4WnI4yeG82nZefDKDmXHuGic3VssV/+uiocooyZfjlncuWc9zJw/V8iZVA7ANGADbxXz9OkoezZ+fJMllS+3m8Ti3VLInya60XN5msqNa5pKkVVbTMqxk2Co/tY18XjP5sNvIhzlYZy60Pz39XzM1Mxszy21m/EPfHXCh6646vZVfdAYAAAAAAAAAAAAAAAAAAAAAAAAAAAAAAAAAAAAAAAAAAAAAAAAAAAAAAAAAAAAAAAAAAAAAAAAAAAAAAAAAAAAAAAAAAAAAAAAAAAAAAAAAAAAAAAAAAICp+AMb53+N2gxvQgAAAABJRU5ErkJggg==;fontFamily=Comic Sans MS;" parent="8" vertex="1">
                    <mxGeometry width="61" height="61" as="geometry"/>
                </mxCell>
                <mxCell id="7" value="timeline" style="text;html=1;strokeColor=none;fillColor=none;align=center;verticalAlign=middle;whiteSpace=wrap;rounded=0;fontFamily=Comic Sans MS;fontStyle=1" parent="8" vertex="1">
                    <mxGeometry x="1" y="50" width="60" height="30" as="geometry"/>
                </mxCell>
            </root>
        </mxGraphModel>
    </diagram>
</mxfile>